<svg width="372" height="469" viewBox="0 0 372 469" fill="none" xmlns="http://www.w3.org/2000/svg">
<g filter="url(#filter0_dd_1_1548)">
<circle cx="224.63" cy="412.226" r="24.7741" fill="url(#paint0_linear_1_1548)" shape-rendering="crispEdges"/>
</g>
<g filter="url(#filter1_dd_1_1548)">
<circle cx="300.182" cy="333.156" r="18.3281" fill="url(#paint1_linear_1_1548)" shape-rendering="crispEdges"/>
</g>
<circle cx="186" cy="186" r="186" fill="url(#paint2_radial_1_1548)" fill-opacity="0.6"/>
<g filter="url(#filter2_d_1_1548)">
<ellipse cx="224.259" cy="227.724" rx="111.442" ry="69.8154" fill="url(#paint3_linear_1_1548)" fill-opacity="0.5" shape-rendering="crispEdges"/>
<path d="M335.231 227.724C335.231 246.783 322.898 264.108 302.811 276.693C282.73 289.273 254.959 297.069 224.259 297.069C193.56 297.069 165.789 289.273 145.708 276.693C125.62 264.108 113.288 246.783 113.288 227.724C113.288 208.666 125.62 191.341 145.708 178.756C165.789 166.176 193.56 158.38 224.259 158.38C254.959 158.38 282.73 166.176 302.811 178.756C322.898 191.341 335.231 208.666 335.231 227.724Z" stroke="url(#paint4_linear_1_1548)" stroke-opacity="0.6" stroke-width="0.941174" shape-rendering="crispEdges"/>
</g>
<circle cx="224.258" cy="162.625" r="141.382" fill="url(#paint5_radial_1_1548)"/>
<ellipse cx="224.257" cy="186" rx="138.225" ry="80.864" fill="url(#paint6_linear_1_1548)" fill-opacity="0.5"/>
<path d="M362.011 186C362.011 208.094 346.7 228.183 321.759 242.774C296.829 257.358 262.358 266.394 224.257 266.394C186.156 266.394 151.685 257.358 126.755 242.774C101.814 228.183 86.5031 208.094 86.5031 186C86.5031 163.907 101.814 143.818 126.755 129.227C151.685 114.643 186.156 105.607 224.257 105.607C262.358 105.607 296.829 114.643 321.759 129.227C346.7 143.818 362.011 163.907 362.011 186Z" stroke="url(#paint7_linear_1_1548)" stroke-opacity="0.6" stroke-width="0.941174"/>
<circle cx="224.257" cy="162.624" r="104.724" fill="url(#paint8_radial_1_1548)"/>
<circle cx="224.257" cy="162.624" r="104.724" fill="url(#paint9_radial_1_1548)"/>
<g filter="url(#filter3_d_1_1548)">
<ellipse cx="224.258" cy="135.797" rx="136.819" ry="78.994" fill="url(#paint10_linear_1_1548)" fill-opacity="0.5" shape-rendering="crispEdges"/>
<path d="M360.606 135.797C360.606 157.371 345.456 176.992 320.768 191.246C296.092 205.493 261.972 214.32 224.258 214.32C186.544 214.32 152.424 205.493 127.748 191.246C103.06 176.992 87.9098 157.371 87.9098 135.797C87.9098 114.222 103.06 94.601 127.748 80.347C152.424 66.1001 186.544 57.2732 224.258 57.2732C261.972 57.2732 296.092 66.1001 320.768 80.347C345.456 94.601 360.606 114.222 360.606 135.797Z" stroke="url(#paint11_linear_1_1548)" stroke-opacity="0.6" stroke-width="0.941174" shape-rendering="crispEdges"/>
</g>
<g filter="url(#filter4_d_1_1548)">
<ellipse cx="224.257" cy="95.0055" rx="106.167" ry="68.6237" fill="url(#paint12_linear_1_1548)" fill-opacity="0.5" shape-rendering="crispEdges"/>
<path d="M329.954 95.0055C329.954 113.742 318.204 130.769 299.073 143.135C279.948 155.497 253.497 163.159 224.257 163.159C195.017 163.159 168.567 155.497 149.441 143.135C130.311 130.769 118.56 113.742 118.56 95.0055C118.56 76.2688 130.311 59.2419 149.441 46.8764C168.567 34.514 195.017 26.8524 224.257 26.8524C253.497 26.8524 279.948 34.514 299.073 46.8764C318.204 59.2419 329.954 76.2688 329.954 95.0055Z" stroke="url(#paint13_linear_1_1548)" stroke-opacity="0.6" stroke-width="0.941174" shape-rendering="crispEdges"/>
</g>
<ellipse cx="224.259" cy="71.1704" rx="66.0812" ry="44.7886" fill="url(#paint14_linear_1_1548)" fill-opacity="0.5"/>
<path d="M289.87 71.1704C289.87 83.3357 282.595 94.4037 270.722 102.451C258.851 110.497 242.426 115.488 224.259 115.488C206.093 115.488 189.668 110.497 177.797 102.451C165.924 94.4037 158.649 83.3357 158.649 71.1704C158.649 59.005 165.924 47.937 177.797 39.8896C189.668 31.8439 206.093 26.8524 224.259 26.8524C242.426 26.8524 258.851 31.8439 270.722 39.8896C282.595 47.937 289.87 59.005 289.87 71.1704Z" stroke="url(#paint15_linear_1_1548)" stroke-opacity="0.6" stroke-width="0.941174"/>
<ellipse cx="224.258" cy="55.8806" rx="38.2578" ry="26.3238" fill="url(#paint16_linear_1_1548)" fill-opacity="0.5"/>
<path d="M262.045 55.8806C262.045 62.9503 257.881 69.4021 251.044 74.1066C244.208 78.8097 234.74 81.7338 224.258 81.7338C213.776 81.7338 204.308 78.8097 197.472 74.1066C190.635 69.4021 186.471 62.9503 186.471 55.8806C186.471 48.8109 190.635 42.359 197.472 37.6545C204.308 32.9514 213.776 30.0273 224.258 30.0273C234.74 30.0273 244.208 32.9514 251.044 37.6545C257.881 42.359 262.045 48.8109 262.045 55.8806Z" stroke="url(#paint17_linear_1_1548)" stroke-opacity="0.6" stroke-width="0.941174"/>
<circle cx="224.258" cy="162.624" r="141.382" fill="url(#paint18_radial_1_1548)" fill-opacity="0.3"/>
<defs>
<filter id="filter0_dd_1_1548" x="166.915" y="352.628" width="115.43" height="115.43" filterUnits="userSpaceOnUse" color-interpolation-filters="sRGB">
<feFlood flood-opacity="0" result="BackgroundImageFix"/>
<feColorMatrix in="SourceAlpha" type="matrix" values="0 0 0 0 0 0 0 0 0 0 0 0 0 0 0 0 0 0 127 0" result="hardAlpha"/>
<feOffset dy="-1.88235"/>
<feGaussianBlur stdDeviation="16.4705"/>
<feComposite in2="hardAlpha" operator="out"/>
<feColorMatrix type="matrix" values="0 0 0 0 0.371081 0 0 0 0 0.235903 0 0 0 0 0.658333 0 0 0 1 0"/>
<feBlend mode="normal" in2="BackgroundImageFix" result="effect1_dropShadow_1_1548"/>
<feColorMatrix in="SourceAlpha" type="matrix" values="0 0 0 0 0 0 0 0 0 0 0 0 0 0 0 0 0 0 127 0" result="hardAlpha"/>
<feOffset dy="-1.88235"/>
<feGaussianBlur stdDeviation="9.41174"/>
<feComposite in2="hardAlpha" operator="out"/>
<feColorMatrix type="matrix" values="0 0 0 0 0.48825 0 0 0 0 0.372778 0 0 0 0 0.733333 0 0 0 1 0"/>
<feBlend mode="normal" in2="effect1_dropShadow_1_1548" result="effect2_dropShadow_1_1548"/>
<feBlend mode="normal" in="SourceGraphic" in2="effect2_dropShadow_1_1548" result="shape"/>
</filter>
<filter id="filter1_dd_1_1548" x="248.913" y="280.004" width="102.538" height="102.538" filterUnits="userSpaceOnUse" color-interpolation-filters="sRGB">
<feFlood flood-opacity="0" result="BackgroundImageFix"/>
<feColorMatrix in="SourceAlpha" type="matrix" values="0 0 0 0 0 0 0 0 0 0 0 0 0 0 0 0 0 0 127 0" result="hardAlpha"/>
<feOffset dy="-1.88235"/>
<feGaussianBlur stdDeviation="16.4705"/>
<feComposite in2="hardAlpha" operator="out"/>
<feColorMatrix type="matrix" values="0 0 0 0 0.371081 0 0 0 0 0.235903 0 0 0 0 0.658333 0 0 0 1 0"/>
<feBlend mode="normal" in2="BackgroundImageFix" result="effect1_dropShadow_1_1548"/>
<feColorMatrix in="SourceAlpha" type="matrix" values="0 0 0 0 0 0 0 0 0 0 0 0 0 0 0 0 0 0 127 0" result="hardAlpha"/>
<feOffset dy="-1.88235"/>
<feGaussianBlur stdDeviation="9.41174"/>
<feComposite in2="hardAlpha" operator="out"/>
<feColorMatrix type="matrix" values="0 0 0 0 0.48825 0 0 0 0 0.372778 0 0 0 0 0.733333 0 0 0 1 0"/>
<feBlend mode="normal" in2="effect1_dropShadow_1_1548" result="effect2_dropShadow_1_1548"/>
<feBlend mode="normal" in="SourceGraphic" in2="effect2_dropShadow_1_1548" result="shape"/>
</filter>
<filter id="filter2_d_1_1548" x="103.405" y="149.438" width="241.708" height="158.454" filterUnits="userSpaceOnUse" color-interpolation-filters="sRGB">
<feFlood flood-opacity="0" result="BackgroundImageFix"/>
<feColorMatrix in="SourceAlpha" type="matrix" values="0 0 0 0 0 0 0 0 0 0 0 0 0 0 0 0 0 0 127 0" result="hardAlpha"/>
<feOffset dy="0.941174"/>
<feGaussianBlur stdDeviation="4.70587"/>
<feComposite in2="hardAlpha" operator="out"/>
<feColorMatrix type="matrix" values="0 0 0 0 0.440043 0 0 0 0 0.20092 0 0 0 0 0.679167 0 0 0 0.3 0"/>
<feBlend mode="normal" in2="BackgroundImageFix" result="effect1_dropShadow_1_1548"/>
<feBlend mode="normal" in="SourceGraphic" in2="effect1_dropShadow_1_1548" result="shape"/>
</filter>
<filter id="filter3_d_1_1548" x="82.7334" y="53.0379" width="283.049" height="167.4" filterUnits="userSpaceOnUse" color-interpolation-filters="sRGB">
<feFlood flood-opacity="0" result="BackgroundImageFix"/>
<feColorMatrix in="SourceAlpha" type="matrix" values="0 0 0 0 0 0 0 0 0 0 0 0 0 0 0 0 0 0 127 0" result="hardAlpha"/>
<feOffset dy="0.941174"/>
<feGaussianBlur stdDeviation="2.35293"/>
<feComposite in2="hardAlpha" operator="out"/>
<feColorMatrix type="matrix" values="0 0 0 0 0.369333 0 0 0 0 0.0916667 0 0 0 0 0.5 0 0 0 0.15 0"/>
<feBlend mode="normal" in2="BackgroundImageFix" result="effect1_dropShadow_1_1548"/>
<feBlend mode="normal" in="SourceGraphic" in2="effect1_dropShadow_1_1548" result="shape"/>
</filter>
<filter id="filter4_d_1_1548" x="111.972" y="20.2641" width="226.452" height="151.365" filterUnits="userSpaceOnUse" color-interpolation-filters="sRGB">
<feFlood flood-opacity="0" result="BackgroundImageFix"/>
<feColorMatrix in="SourceAlpha" type="matrix" values="0 0 0 0 0 0 0 0 0 0 0 0 0 0 0 0 0 0 127 0" result="hardAlpha"/>
<feOffset dx="0.941174" dy="0.941174"/>
<feGaussianBlur stdDeviation="3.5294"/>
<feComposite in2="hardAlpha" operator="out"/>
<feColorMatrix type="matrix" values="0 0 0 0 0.440043 0 0 0 0 0.20092 0 0 0 0 0.679167 0 0 0 0.2 0"/>
<feBlend mode="normal" in2="BackgroundImageFix" result="effect1_dropShadow_1_1548"/>
<feBlend mode="normal" in="SourceGraphic" in2="effect1_dropShadow_1_1548" result="shape"/>
</filter>
<linearGradient id="paint0_linear_1_1548" x1="224.63" y1="376.68" x2="224.63" y2="463.569" gradientUnits="userSpaceOnUse">
<stop stop-color="white"/>
<stop offset="0.223958" stop-color="#6BE4FF"/>
<stop offset="0.623188" stop-color="#371B73" stop-opacity="0.6"/>
<stop offset="1" stop-color="#0A1153" stop-opacity="0.4"/>
</linearGradient>
<linearGradient id="paint1_linear_1_1548" x1="300.182" y1="306.859" x2="300.182" y2="371.14" gradientUnits="userSpaceOnUse">
<stop stop-color="white"/>
<stop offset="0.223958" stop-color="#6BE4FF"/>
<stop offset="0.623188" stop-color="#371B73" stop-opacity="0.6"/>
<stop offset="1" stop-color="#0A1153" stop-opacity="0.4"/>
</linearGradient>
<radialGradient id="paint2_radial_1_1548" cx="0" cy="0" r="1" gradientUnits="userSpaceOnUse" gradientTransform="translate(186 186) rotate(90) scale(186)">
<stop stop-color="#FF65C1"/>
<stop offset="1" stop-color="#FF65C1" stop-opacity="0"/>
</radialGradient>
<linearGradient id="paint3_linear_1_1548" x1="224.259" y1="157.909" x2="224.259" y2="297.54" gradientUnits="userSpaceOnUse">
<stop stop-color="#13154D"/>
<stop offset="1" stop-color="#8E92EE" stop-opacity="0"/>
</linearGradient>
<linearGradient id="paint4_linear_1_1548" x1="279.608" y1="236.526" x2="285.916" y2="306.959" gradientUnits="userSpaceOnUse">
<stop stop-color="white" stop-opacity="0"/>
<stop offset="1" stop-color="white"/>
</linearGradient>
<radialGradient id="paint5_radial_1_1548" cx="0" cy="0" r="1" gradientUnits="userSpaceOnUse" gradientTransform="translate(82.876 214.056) rotate(-19.6638) scale(300.275)">
<stop offset="0.249306" stop-color="white"/>
<stop offset="0.48315" stop-color="#FF8FED" stop-opacity="0.5"/>
<stop offset="0.627037" stop-color="#220C7A" stop-opacity="0.5"/>
</radialGradient>
<linearGradient id="paint6_linear_1_1548" x1="97.3125" y1="203.186" x2="359.299" y2="173.616" gradientUnits="userSpaceOnUse">
<stop stop-color="white"/>
<stop offset="1" stop-color="#12178E" stop-opacity="0.4"/>
</linearGradient>
<linearGradient id="paint7_linear_1_1548" x1="246.204" y1="301.135" x2="204.382" y2="201.358" gradientUnits="userSpaceOnUse">
<stop offset="0.0011346" stop-color="white"/>
<stop offset="1" stop-color="white" stop-opacity="0"/>
</linearGradient>
<radialGradient id="paint8_radial_1_1548" cx="0" cy="0" r="1" gradientUnits="userSpaceOnUse" gradientTransform="translate(145.049 215.803) rotate(-14.8494) scale(207.504)">
<stop offset="0.239373" stop-color="white"/>
<stop offset="0.410099" stop-color="#FFCEF1"/>
<stop offset="0.67492" stop-color="#B6B9FF"/>
<stop offset="0.861176" stop-color="#FFA8E7"/>
<stop offset="1" stop-color="white"/>
</radialGradient>
<radialGradient id="paint9_radial_1_1548" cx="0" cy="0" r="1" gradientUnits="userSpaceOnUse" gradientTransform="translate(323.472 243.571) rotate(-121.724) scale(119.316)">
<stop stop-color="#3F52FF"/>
<stop offset="1" stop-color="#3F52FF" stop-opacity="0"/>
</radialGradient>
<linearGradient id="paint10_linear_1_1548" x1="90.3855" y1="130.352" x2="361.076" y2="138.762" gradientUnits="userSpaceOnUse">
<stop stop-color="white"/>
<stop offset="1" stop-color="#5653FF" stop-opacity="0.2"/>
</linearGradient>
<linearGradient id="paint11_linear_1_1548" x1="206.241" y1="270.563" x2="197.734" y2="141.709" gradientUnits="userSpaceOnUse">
<stop stop-color="white"/>
<stop offset="1" stop-color="white" stop-opacity="0"/>
</linearGradient>
<linearGradient id="paint12_linear_1_1548" x1="224.257" y1="26.3818" x2="224.257" y2="163.629" gradientUnits="userSpaceOnUse">
<stop stop-color="#13154D" stop-opacity="0.5"/>
<stop offset="1" stop-color="#8E92EE" stop-opacity="0"/>
</linearGradient>
<linearGradient id="paint13_linear_1_1548" x1="242.813" y1="193.426" x2="256.895" y2="41.6598" gradientUnits="userSpaceOnUse">
<stop stop-color="white"/>
<stop offset="1" stop-color="white" stop-opacity="0"/>
</linearGradient>
<linearGradient id="paint14_linear_1_1548" x1="224.259" y1="26.3818" x2="224.259" y2="115.959" gradientUnits="userSpaceOnUse">
<stop stop-color="#13154D"/>
<stop offset="1" stop-color="#8E92EE" stop-opacity="0"/>
</linearGradient>
<linearGradient id="paint15_linear_1_1548" x1="250.699" y1="181.863" x2="224.259" y2="26.3818" gradientUnits="userSpaceOnUse">
<stop stop-color="white"/>
<stop offset="1" stop-color="white" stop-opacity="0"/>
</linearGradient>
<linearGradient id="paint16_linear_1_1548" x1="224.258" y1="29.5568" x2="224.258" y2="82.2044" gradientUnits="userSpaceOnUse">
<stop stop-color="#13154D"/>
<stop offset="1" stop-color="#8E92EE" stop-opacity="0"/>
</linearGradient>
<linearGradient id="paint17_linear_1_1548" x1="244.916" y1="137.711" x2="224.258" y2="29.5568" gradientUnits="userSpaceOnUse">
<stop stop-color="white"/>
<stop offset="1" stop-color="white" stop-opacity="0"/>
</linearGradient>
<radialGradient id="paint18_radial_1_1548" cx="0" cy="0" r="1" gradientUnits="userSpaceOnUse" gradientTransform="translate(82.876 214.055) rotate(-19.6638) scale(300.275)">
<stop offset="0.249306" stop-color="white"/>
<stop offset="0.48315" stop-color="#FF8FED" stop-opacity="0.5"/>
<stop offset="0.627037" stop-color="#220C7A" stop-opacity="0"/>
</radialGradient>
</defs>
</svg>
